<svg width="273" height="381" viewBox="0 0 273 381" fill="none" xmlns="http://www.w3.org/2000/svg">
<path d="M126.75 0H146.5L159.25 1.75L169 3.75L176.75 6L184.25 8.5L192.25 11.75L200.5 15.75L206.5 19.25L211.25 22.25L215.5 25.25L219.5 28.25L223 31L226.75 34.25L229.25 36.5L231 38.25L233 40L236.5 43.75L239.5 47L241.75 49.75L245 53.75L248.25 58.25L250.75 62L255 69L258.5 75.5L261.75 82.5L264.5 89.5L267.5 98.5L269.75 107.5L271.25 116L272.25 124.5L272.75 131.75V141L272 148L270.25 156.5L268 164.25L266 169.75L263.25 176.25L259.25 184.75L256.25 190.25L252.75 196.5L249.5 201.75L246.5 206.5L239.25 217.5L236.5 221.25L233 226.25L229.5 231L226.5 235.25L219 245.25L215.5 250L212.5 254L209 258.75L206.5 262L204.25 265L197.25 274.5L194.25 278.75L191 283.25L187.75 288L185.5 291L181.75 296.5L173.75 308.75L170.5 314L163.75 325.25L156.75 338.25L153.5 344.75L149.5 353.75L146 362.25L143 370.75L141 377.5L140 379.5L138 381H135L132.75 379.5L131 376L128 367.5L124.75 359.25L121.25 351.25L117.5 343.5L115.5 339.5L112.25 333.25L105.75 321.75L102.25 316L99.25 311.25L95.75 305.75L88.5 295L86.5 292L79.5 282L76.5 277.75L69.5 268.25L66.25 263.75L55.75 249.5L52.75 245.5L49.75 241.25L46.25 236.5L43 232L39.5 227L36.75 223L33.25 218L28.5 210.75L25 205.25L21.25 199L17.5 192.5L13 184L9.75 177L7 170.25L4.5 163.25L2.5 156L1 148.25L0.25 142L0 132.75L0.25 126.25L1 119.25L2.75 108.5L5 99.25L7.5 91.5L10.5 83.75L13 78L15.25 73.75L16.75 70.75L20 65.25L23 60.5L26 56.25L28.25 53.25L31.5 49.25L33.5 46.75H34L34.5 45.75L38 42L44.5 35.5L47.25 33.25L50 30.75L53.25 28.25L56.25 26L60.5 23L64.75 20.25L68.5 18L72.5 15.75L76.75 13.5L84.75 10L92.75 7L102.75 4L112.25 2L118.5 1L126.75 0ZM130 26L121.75 26.75L114.5 28L108.25 29.5L102.5 31.25L94.25 34.5L87 38L82.75 40.25L78.75 42.75L73 46.75L69.75 49.25L67 51.5L63.75 54.5L61.75 56.25L57.5 60.5L55.25 63.25L53.25 65.5L50.75 68.75L47.5 73.25L44.75 77.75L42.25 82L39 88.5L36 95.75L33.5 103.25L32 109.25L30.5 117L29.75 124L29.5 128.25V135L30 143.75L31 151L32.75 159.5L35.25 167.75L38 174.75L40.75 180.75L44.25 187.25L48.25 193.5L51.25 197.5L54 201L56.5 203.75L58.25 205.75L61.75 209.5L62.5 209.75V210.25L64.5 212L67 214.25L69.75 216.5L73.75 219.5L79.25 223.25L83 225.5L90.5 229.5L97 232.25L103 234.5L110.5 236.75L118 238.25L125.5 239.25L128.5 239.5H144.25L149.5 239L158.5 237.5L164.75 236L173.75 233L178.75 231L184.75 228.25L190.25 225.25L194.25 222.75L198.25 220L203 216.5L206.5 213.5L209.75 210.5L212.25 208.25L216.25 204L218.5 201.5L221.25 198L224 194.25L226.5 190.5L228.5 187.25L231 183L234.5 175.75L237.5 168L239.5 161.75L241 155.5L242.25 149L243 142.75L243.25 138.75V128.75L242.75 121.5L241.75 114.5L240.25 107.25L238.25 100L236 93.75L233.5 88L231.5 84L229 79.25L225.25 73.25L222.75 69.75L219.5 65.5L216.5 62L214.25 59.5L211.75 56.75L209.75 55L206.25 51.75L203.5 49.5L198.5 45.75L191.75 41.25L186.25 38.25L182 36L176.75 33.75L169.5 31L161.75 28.75L152.75 27L145.75 26.25L142.5 26H130Z" fill="#FF4040"/>
<path d="M191 124.824L125.97 64L84.5942 102.699L149.625 163.524L161.912 152.031L170.271 159.849L186.988 144.213L178.629 136.395L191 124.824ZM108.249 102.699L125.97 86.1251L167.345 124.824L149.625 141.399L108.249 102.699ZM95.8784 142.728H89.3587V115.365H81V174H89.3587V158.364H107.915L109.252 130.375L96.965 118.883L95.8784 142.728Z" fill="#FF4040"/>
</svg>
