<svg width="273" height="381" viewBox="0 0 273 381" fill="none" xmlns="http://www.w3.org/2000/svg">
<mask id="path-1-inside-1_34_40" fill="white">
<path d="M126.75 0H146.5L159.25 1.75L169 3.75L176.75 6L184.25 8.5L192.25 11.75L200.5 15.75L206.5 19.25L211.25 22.25L215.5 25.25L219.5 28.25L223 31L226.75 34.25L229.25 36.5L231 38.25L233 40L236.5 43.75L239.5 47L241.75 49.75L245 53.75L248.25 58.25L250.75 62L255 69L258.5 75.5L261.75 82.5L264.5 89.5L267.5 98.5L269.75 107.5L271.25 116L272.25 124.5L272.75 131.75V141L272 148L270.25 156.5L268 164.25L266 169.75L263.25 176.25L259.25 184.75L256.25 190.25L252.75 196.5L249.5 201.75L246.5 206.5L239.25 217.5L236.5 221.25L233 226.25L229.5 231L226.5 235.25L219 245.25L215.5 250L212.5 254L209 258.75L206.5 262L204.25 265L197.25 274.5L194.25 278.75L191 283.25L187.75 288L185.5 291L181.75 296.5L173.75 308.75L170.5 314L163.75 325.25L156.75 338.25L153.5 344.75L149.5 353.75L146 362.25L143 370.75L141 377.5L140 379.5L138 381H135L132.75 379.5L131 376L128 367.5L124.75 359.25L121.25 351.25L117.5 343.5L115.5 339.5L112.25 333.25L105.75 321.75L102.25 316L99.25 311.25L95.75 305.75L88.5 295L86.5 292L79.5 282L76.5 277.75L69.5 268.25L66.25 263.75L55.75 249.5L52.75 245.5L49.75 241.25L46.25 236.5L43 232L39.5 227L36.75 223L33.25 218L28.5 210.75L25 205.25L21.25 199L17.5 192.5L13 184L9.75 177L7 170.25L4.5 163.25L2.5 156L1 148.25L0.25 142L0 132.75L0.25 126.25L1 119.25L2.75 108.5L5 99.25L7.5 91.5L10.5 83.75L13 78L15.25 73.75L16.75 70.75L20 65.25L23 60.5L26 56.25L28.25 53.25L31.5 49.25L33.5 46.75H34L34.5 45.75L38 42L44.5 35.5L47.25 33.25L50 30.75L53.25 28.25L56.25 26L60.5 23L64.75 20.25L68.5 18L72.5 15.75L76.75 13.5L84.75 10L92.75 7L102.75 4L112.25 2L118.5 1L126.75 0ZM130 26L121.75 26.75L114.5 28L108.25 29.5L102.5 31.25L94.25 34.5L87 38L82.75 40.25L78.75 42.75L73 46.75L69.75 49.25L67 51.5L63.75 54.5L61.75 56.25L57.5 60.5L55.25 63.25L53.25 65.5L50.75 68.75L47.5 73.25L44.75 77.75L42.25 82L39 88.5L36 95.75L33.5 103.25L32 109.25L30.5 117L29.75 124L29.5 128.25V135L30 143.75L31 151L32.75 159.5L35.25 167.75L38 174.75L40.75 180.75L44.25 187.25L48.25 193.5L51.25 197.5L54 201L56.5 203.75L58.25 205.75L61.75 209.5L62.5 209.75V210.25L64.5 212L67 214.25L69.75 216.5L73.75 219.5L79.25 223.25L83 225.5L90.5 229.5L97 232.25L103 234.5L110.5 236.75L118 238.25L125.5 239.25L128.5 239.5H144.25L149.5 239L158.5 237.5L164.75 236L173.75 233L178.75 231L184.75 228.25L190.25 225.25L194.25 222.75L198.25 220L203 216.5L206.5 213.5L209.75 210.5L212.25 208.25L216.25 204L218.5 201.5L221.25 198L224 194.25L226.5 190.5L228.5 187.25L231 183L234.5 175.75L237.5 168L239.5 161.75L241 155.5L242.25 149L243 142.75L243.25 138.75V128.75L242.75 121.5L241.75 114.5L240.25 107.25L238.25 100L236 93.75L233.5 88L231.5 84L229 79.25L225.25 73.25L222.75 69.75L219.5 65.5L216.5 62L214.25 59.5L211.75 56.75L209.75 55L206.25 51.75L203.5 49.5L198.5 45.75L191.75 41.25L186.25 38.25L182 36L176.75 33.75L169.5 31L161.75 28.75L152.75 27L145.75 26.25L142.5 26H130Z"/>
</mask>
<path d="M126.75 0H146.5L159.25 1.75L169 3.75L176.75 6L184.25 8.5L192.25 11.75L200.5 15.75L206.5 19.25L211.25 22.25L215.5 25.25L219.5 28.25L223 31L226.75 34.25L229.25 36.5L231 38.25L233 40L236.5 43.75L239.5 47L241.75 49.75L245 53.75L248.25 58.25L250.75 62L255 69L258.5 75.5L261.75 82.5L264.5 89.5L267.5 98.5L269.75 107.5L271.25 116L272.25 124.5L272.75 131.75V141L272 148L270.25 156.5L268 164.25L266 169.75L263.25 176.25L259.25 184.75L256.25 190.25L252.75 196.5L249.5 201.75L246.5 206.5L239.25 217.5L236.5 221.25L233 226.25L229.5 231L226.5 235.25L219 245.25L215.5 250L212.5 254L209 258.75L206.5 262L204.25 265L197.25 274.5L194.25 278.75L191 283.25L187.75 288L185.5 291L181.75 296.5L173.75 308.75L170.5 314L163.75 325.25L156.75 338.25L153.5 344.75L149.5 353.75L146 362.25L143 370.75L141 377.5L140 379.5L138 381H135L132.75 379.5L131 376L128 367.5L124.75 359.25L121.25 351.25L117.5 343.5L115.5 339.5L112.25 333.25L105.75 321.75L102.25 316L99.25 311.25L95.75 305.75L88.5 295L86.5 292L79.5 282L76.5 277.75L69.5 268.25L66.25 263.75L55.75 249.5L52.75 245.5L49.75 241.25L46.25 236.5L43 232L39.5 227L36.75 223L33.25 218L28.5 210.75L25 205.25L21.25 199L17.5 192.5L13 184L9.75 177L7 170.25L4.5 163.25L2.5 156L1 148.25L0.25 142L0 132.75L0.25 126.25L1 119.25L2.75 108.5L5 99.25L7.5 91.5L10.5 83.75L13 78L15.25 73.75L16.75 70.75L20 65.25L23 60.5L26 56.25L28.25 53.25L31.5 49.25L33.5 46.75H34L34.5 45.75L38 42L44.5 35.5L47.25 33.25L50 30.75L53.25 28.25L56.25 26L60.5 23L64.75 20.25L68.5 18L72.5 15.75L76.75 13.5L84.75 10L92.75 7L102.75 4L112.25 2L118.5 1L126.75 0ZM130 26L121.75 26.75L114.5 28L108.25 29.5L102.5 31.25L94.25 34.5L87 38L82.75 40.25L78.75 42.75L73 46.75L69.75 49.25L67 51.5L63.75 54.5L61.75 56.25L57.5 60.5L55.25 63.25L53.25 65.5L50.75 68.75L47.5 73.25L44.75 77.75L42.25 82L39 88.5L36 95.75L33.5 103.25L32 109.25L30.5 117L29.75 124L29.5 128.25V135L30 143.75L31 151L32.75 159.5L35.25 167.75L38 174.75L40.75 180.75L44.25 187.25L48.25 193.5L51.25 197.5L54 201L56.5 203.75L58.25 205.75L61.75 209.5L62.5 209.75V210.25L64.5 212L67 214.25L69.75 216.5L73.75 219.5L79.25 223.25L83 225.5L90.5 229.5L97 232.25L103 234.5L110.5 236.75L118 238.25L125.5 239.25L128.5 239.5H144.25L149.5 239L158.5 237.5L164.75 236L173.75 233L178.75 231L184.75 228.25L190.25 225.25L194.25 222.75L198.25 220L203 216.5L206.5 213.5L209.75 210.5L212.25 208.25L216.25 204L218.5 201.5L221.25 198L224 194.25L226.5 190.5L228.5 187.25L231 183L234.5 175.75L237.5 168L239.5 161.75L241 155.5L242.25 149L243 142.75L243.25 138.75V128.75L242.75 121.5L241.75 114.5L240.25 107.25L238.25 100L236 93.75L233.5 88L231.5 84L229 79.25L225.25 73.25L222.75 69.75L219.5 65.5L216.5 62L214.25 59.5L211.75 56.75L209.75 55L206.25 51.75L203.5 49.5L198.5 45.75L191.75 41.25L186.25 38.25L182 36L176.75 33.75L169.5 31L161.75 28.75L152.75 27L145.75 26.25L142.5 26H130Z" fill="#209BFF" stroke="black" stroke-width="16" mask="url(#path-1-inside-1_34_40)"/>
<mask id="path-2-inside-2_34_40" fill="white">
<path d="M134.865 83.311H137.912L139.696 83.5374L141.182 83.9147L142.742 84.5184L143.931 85.122L144.972 85.7257L145.864 86.3293L146.755 87.0084L147.796 87.9139L148.985 89.1212L149.654 89.9513L150.174 90.7059L150.843 91.8377L151.437 93.045L152.032 94.4033L152.552 95.9879L152.849 97.2706L153.072 98.9307V101.647L152.775 103.76L152.329 105.345L151.734 106.929L151.14 108.136L150.322 109.646L149.505 110.853L148.539 111.985L147.647 112.89L146.681 113.645L145.864 114.173L145.789 114.249L145.864 114.852L147.276 118.851L148.019 120.964L149.431 124.813L150.694 128.435L152.032 132.207L152.552 133.566L153.072 135.075L154.633 139.376L155.822 142.696L157.308 146.922L158.646 150.619L160.058 154.543L161.544 158.693L162.659 161.862L163.476 164.126L164.591 167.22L165.408 169.483L166.597 172.803L168.009 176.727L170.016 182.386L171.353 186.084L172.319 188.8L173.434 191.819L174.177 194.082L174.326 195.29L174.177 196.497L173.583 197.704L173.063 198.534L172.245 199.44L171.502 200.044L170.313 200.647L169.05 201.024L167.786 201.251H166.374L165.334 201.024L164.442 200.572L163.699 199.968L162.956 199.213L162.361 198.233L161.767 196.95L160.726 194.158L159.909 191.97L157.828 186.084L157.085 183.896L156.342 181.783L156.045 180.953L155.747 180.651H116.51L115.915 182.386L115.172 184.273L114.429 186.537L113.611 188.8L112.497 191.97L111.456 194.761L110.787 196.572L110.267 197.78L109.598 198.912L108.781 199.817L107.74 200.572L106.923 200.874L105.288 201.251H103.728L102.613 201.024L101.795 200.723L100.829 200.119L100.086 199.44L99.4916 198.761L98.7485 197.327L98.4512 196.422L98.3026 195.29L98.4512 193.931L98.8971 192.12L99.8632 189.329L100.829 186.688L103.505 179.217L105.065 174.841L106.477 170.917L107.295 168.653L108.632 164.88L109.45 162.617L110.416 159.9L111.753 156.203L112.497 154.165L113.611 150.996L115.321 146.242L115.989 144.431L116.807 142.092L118.59 137.263L119.259 135.301L120.002 133.188L121.414 129.265L122.455 126.397L123.718 122.775L124.535 120.587L125.873 116.814L126.691 114.701L126.468 114.173L125.502 113.268L124.907 112.739L123.718 111.532L122.901 110.476L122.306 109.646L121.489 108.212L120.894 107.005L120.3 105.42L119.779 103.609L119.556 102.175L119.482 101.421V99.308L119.705 97.5725L120.151 95.5351L120.745 93.7996L121.414 92.3659L122.529 90.4795L123.123 89.7249L123.941 88.744L125.353 87.3103L126.393 86.4802L127.211 85.8766L128.623 85.0466L129.812 84.4429L131.818 83.7638L133.453 83.4619L134.865 83.311ZM135.905 125.869L135.683 126.322L135.311 127.755L134.494 130.17L133.75 132.283L132.487 135.829L131.818 137.716L130.704 140.885L129.886 143.149L128.994 145.488L128.771 146.092V146.393L128.92 146.469L134.865 146.544H143.634L143.486 145.865L142.371 142.922L141.628 140.734L140.216 136.735L138.878 133.037L137.466 128.887L136.872 127.303L136.426 126.322L136.128 125.869H135.905ZM124.684 157.863L124.461 158.165L123.644 160.428L121.414 166.767L120.597 168.88V169.181L130.183 169.257H151.586L151.66 168.955L150.843 166.691L149.654 162.994L148.613 159.976L147.944 158.165L147.796 157.863H124.684Z"/>
</mask>
<path d="M134.865 83.311H137.912L139.696 83.5374L141.182 83.9147L142.742 84.5184L143.931 85.122L144.972 85.7257L145.864 86.3293L146.755 87.0084L147.796 87.9139L148.985 89.1212L149.654 89.9513L150.174 90.7059L150.843 91.8377L151.437 93.045L152.032 94.4033L152.552 95.9879L152.849 97.2706L153.072 98.9307V101.647L152.775 103.76L152.329 105.345L151.734 106.929L151.14 108.136L150.322 109.646L149.505 110.853L148.539 111.985L147.647 112.89L146.681 113.645L145.864 114.173L145.789 114.249L145.864 114.852L147.276 118.851L148.019 120.964L149.431 124.813L150.694 128.435L152.032 132.207L152.552 133.566L153.072 135.075L154.633 139.376L155.822 142.696L157.308 146.922L158.646 150.619L160.058 154.543L161.544 158.693L162.659 161.862L163.476 164.126L164.591 167.22L165.408 169.483L166.597 172.803L168.009 176.727L170.016 182.386L171.353 186.084L172.319 188.8L173.434 191.819L174.177 194.082L174.326 195.29L174.177 196.497L173.583 197.704L173.063 198.534L172.245 199.44L171.502 200.044L170.313 200.647L169.05 201.024L167.786 201.251H166.374L165.334 201.024L164.442 200.572L163.699 199.968L162.956 199.213L162.361 198.233L161.767 196.95L160.726 194.158L159.909 191.97L157.828 186.084L157.085 183.896L156.342 181.783L156.045 180.953L155.747 180.651H116.51L115.915 182.386L115.172 184.273L114.429 186.537L113.611 188.8L112.497 191.97L111.456 194.761L110.787 196.572L110.267 197.78L109.598 198.912L108.781 199.817L107.74 200.572L106.923 200.874L105.288 201.251H103.728L102.613 201.024L101.795 200.723L100.829 200.119L100.086 199.44L99.4916 198.761L98.7485 197.327L98.4512 196.422L98.3026 195.29L98.4512 193.931L98.8971 192.12L99.8632 189.329L100.829 186.688L103.505 179.217L105.065 174.841L106.477 170.917L107.295 168.653L108.632 164.88L109.45 162.617L110.416 159.9L111.753 156.203L112.497 154.165L113.611 150.996L115.321 146.242L115.989 144.431L116.807 142.092L118.59 137.263L119.259 135.301L120.002 133.188L121.414 129.265L122.455 126.397L123.718 122.775L124.535 120.587L125.873 116.814L126.691 114.701L126.468 114.173L125.502 113.268L124.907 112.739L123.718 111.532L122.901 110.476L122.306 109.646L121.489 108.212L120.894 107.005L120.3 105.42L119.779 103.609L119.556 102.175L119.482 101.421V99.308L119.705 97.5725L120.151 95.5351L120.745 93.7996L121.414 92.3659L122.529 90.4795L123.123 89.7249L123.941 88.744L125.353 87.3103L126.393 86.4802L127.211 85.8766L128.623 85.0466L129.812 84.4429L131.818 83.7638L133.453 83.4619L134.865 83.311ZM135.905 125.869L135.683 126.322L135.311 127.755L134.494 130.17L133.75 132.283L132.487 135.829L131.818 137.716L130.704 140.885L129.886 143.149L128.994 145.488L128.771 146.092V146.393L128.92 146.469L134.865 146.544H143.634L143.486 145.865L142.371 142.922L141.628 140.734L140.216 136.735L138.878 133.037L137.466 128.887L136.872 127.303L136.426 126.322L136.128 125.869H135.905ZM124.684 157.863L124.461 158.165L123.644 160.428L121.414 166.767L120.597 168.88V169.181L130.183 169.257H151.586L151.66 168.955L150.843 166.691L149.654 162.994L148.613 159.976L147.944 158.165L147.796 157.863H124.684Z" fill="#209BFF" stroke="black" stroke-width="10" mask="url(#path-2-inside-2_34_40)"/>
<mask id="path-3-inside-3_34_40" fill="white">
<path d="M79.1296 60.3719H79.947L81.2847 60.5983L82.4737 61.0511L83.2169 61.5038L83.8857 62.032L84.6288 62.7866L85.149 63.5412L85.6692 64.5976L85.9665 65.654L86.1151 66.8613L85.9665 67.9931L85.5206 69.2759L84.8518 70.4078L84.1086 71.3133L83.4398 72.1433L82.548 73.1997L82.3994 73.4261H82.2508L82.1021 73.7279L81.1361 74.9352L80.2443 76.218L79.2782 77.5762L78.6094 78.6326L78.1635 79.4627L76.8258 82.1037L75.7855 84.4428L74.968 86.7066L74.3735 88.7439L73.6303 91.8377L73.2588 94.1768L72.9615 97.4969V101.421L73.2588 104.741L73.7047 107.608L74.2249 109.796L74.968 112.437L75.7855 114.626L76.4543 116.21L77.569 118.55L78.5351 120.285L79.4268 121.719L80.0957 122.7L80.8388 123.756L81.4333 124.511L82.1021 125.341L82.8453 126.171L83.3655 126.774L83.8857 127.303L84.5545 128.133L85.4463 129.34L86.1151 130.547L86.4124 131.302L86.4867 131.679V133.641L86.2637 134.546L85.8922 135.452L85.2976 136.433L84.7774 137.112L84.6288 137.338H84.4802L84.3316 137.64L83.7371 138.093L82.6223 138.621L81.4333 138.998L80.6159 139.149H79.2782L78.5351 138.998L77.569 138.621L76.4543 137.867L75.4139 136.961L73.9276 135.452L73.2588 134.622L72.6643 133.943L71.3266 132.283L70.1376 130.698L69.3201 129.491L68.354 127.982L67.4623 126.473L66.4219 124.662L65.1585 122.171L64.1925 119.908L63.4493 117.946L62.7062 115.833L61.963 113.192L61.4428 111.004L60.8483 107.684L60.4024 104.892L60.1795 102.477V97.0442L60.4024 94.2523L60.8483 91.1585L61.3685 88.3666L61.8887 86.0274L62.4089 84.141L63.1521 81.9527L64.1181 79.4627L64.9356 77.5008L65.8274 75.5389L66.7191 73.8788L67.388 72.6715L68.2797 71.1623L69.4688 69.3514L70.1376 68.4459L70.5835 67.7668L71.6239 66.3331L72.4413 65.2767L73.2588 64.3712L73.3331 64.2203H73.4817L73.6303 63.9184L74.1505 63.3148H74.2992L74.4478 63.013L74.8937 62.6357L75.2653 62.1829L76.157 61.5038L77.1974 60.9001L78.3121 60.5229L79.1296 60.3719Z"/>
</mask>
<path d="M79.1296 60.3719H79.947L81.2847 60.5983L82.4737 61.0511L83.2169 61.5038L83.8857 62.032L84.6288 62.7866L85.149 63.5412L85.6692 64.5976L85.9665 65.654L86.1151 66.8613L85.9665 67.9931L85.5206 69.2759L84.8518 70.4078L84.1086 71.3133L83.4398 72.1433L82.548 73.1997L82.3994 73.4261H82.2508L82.1021 73.7279L81.1361 74.9352L80.2443 76.218L79.2782 77.5762L78.6094 78.6326L78.1635 79.4627L76.8258 82.1037L75.7855 84.4428L74.968 86.7066L74.3735 88.7439L73.6303 91.8377L73.2588 94.1768L72.9615 97.4969V101.421L73.2588 104.741L73.7047 107.608L74.2249 109.796L74.968 112.437L75.7855 114.626L76.4543 116.21L77.569 118.55L78.5351 120.285L79.4268 121.719L80.0957 122.7L80.8388 123.756L81.4333 124.511L82.1021 125.341L82.8453 126.171L83.3655 126.774L83.8857 127.303L84.5545 128.133L85.4463 129.34L86.1151 130.547L86.4124 131.302L86.4867 131.679V133.641L86.2637 134.546L85.8922 135.452L85.2976 136.433L84.7774 137.112L84.6288 137.338H84.4802L84.3316 137.64L83.7371 138.093L82.6223 138.621L81.4333 138.998L80.6159 139.149H79.2782L78.5351 138.998L77.569 138.621L76.4543 137.867L75.4139 136.961L73.9276 135.452L73.2588 134.622L72.6643 133.943L71.3266 132.283L70.1376 130.698L69.3201 129.491L68.354 127.982L67.4623 126.473L66.4219 124.662L65.1585 122.171L64.1925 119.908L63.4493 117.946L62.7062 115.833L61.963 113.192L61.4428 111.004L60.8483 107.684L60.4024 104.892L60.1795 102.477V97.0442L60.4024 94.2523L60.8483 91.1585L61.3685 88.3666L61.8887 86.0274L62.4089 84.141L63.1521 81.9527L64.1181 79.4627L64.9356 77.5008L65.8274 75.5389L66.7191 73.8788L67.388 72.6715L68.2797 71.1623L69.4688 69.3514L70.1376 68.4459L70.5835 67.7668L71.6239 66.3331L72.4413 65.2767L73.2588 64.3712L73.3331 64.2203H73.4817L73.6303 63.9184L74.1505 63.3148H74.2992L74.4478 63.013L74.8937 62.6357L75.2653 62.1829L76.157 61.5038L77.1974 60.9001L78.3121 60.5229L79.1296 60.3719Z" fill="#209BFF" stroke="black" stroke-width="10" mask="url(#path-3-inside-3_34_40)"/>
<mask id="path-4-inside-4_34_40" fill="white">
<path d="M192.533 60.3719H193.499L194.762 60.5983L195.877 61.0511L196.843 61.6547L197.586 62.2584L198.924 63.6166L199.593 64.4466L200.484 65.503L201.302 66.484L202.045 67.4649L202.937 68.7477L204.572 71.2378L205.463 72.7469L206.207 74.1052L207.098 75.8407L208.139 78.029L208.956 80.0663L209.774 82.2546L210.442 84.4428L211.037 86.6311L211.631 89.6494L212.152 92.9695L212.375 95.3087L212.449 96.3651V102.477L212.226 105.646L211.854 108.136L211.111 112.06L210.517 114.399L209.848 116.512L209.179 118.399L208.436 120.285L207.321 122.775L206.058 125.265L205.166 126.85L204.126 128.51L203.085 130.095L201.525 132.207L199.593 134.622L198.775 135.527L198.255 136.131L197.289 137.112L196.694 137.64L196.026 138.093L194.985 138.621L193.573 139.074L192.087 139.149L190.972 138.923L189.857 138.47L188.966 137.942L188.074 137.112L187.479 136.433L186.885 135.301L186.513 134.32L186.365 133.415V132.132L186.662 130.623L186.885 130.019L187.851 128.51L188.371 127.906H188.52L188.668 127.604L189.932 126.322L190.526 125.567L191.344 124.586L191.938 123.756L192.607 122.851L193.276 121.87L194.168 120.436L194.762 119.455L195.208 118.625L195.877 117.342L196.992 114.701L197.66 112.89L198.181 111.306L198.849 108.589L199.295 106.476L199.667 103.534L199.816 101.496V97.1951L199.518 94.2523L199.072 91.4604L198.552 89.1966L197.883 86.782L196.843 83.9901L196.026 82.1791L195.357 80.7454L194.391 79.0099L193.202 77.048L192.31 75.7652L191.418 74.5579L190.08 72.8979L189.189 71.8415L188.371 70.936L187.628 69.8796L187.182 68.9741L186.811 67.6913L186.736 67.314V65.9558L187.108 64.673L187.702 63.4657L188.445 62.4093L188.966 61.8811L190.155 61.1265L190.972 60.7492L192.533 60.3719Z"/>
</mask>
<path d="M192.533 60.3719H193.499L194.762 60.5983L195.877 61.0511L196.843 61.6547L197.586 62.2584L198.924 63.6166L199.593 64.4466L200.484 65.503L201.302 66.484L202.045 67.4649L202.937 68.7477L204.572 71.2378L205.463 72.7469L206.207 74.1052L207.098 75.8407L208.139 78.029L208.956 80.0663L209.774 82.2546L210.442 84.4428L211.037 86.6311L211.631 89.6494L212.152 92.9695L212.375 95.3087L212.449 96.3651V102.477L212.226 105.646L211.854 108.136L211.111 112.06L210.517 114.399L209.848 116.512L209.179 118.399L208.436 120.285L207.321 122.775L206.058 125.265L205.166 126.85L204.126 128.51L203.085 130.095L201.525 132.207L199.593 134.622L198.775 135.527L198.255 136.131L197.289 137.112L196.694 137.64L196.026 138.093L194.985 138.621L193.573 139.074L192.087 139.149L190.972 138.923L189.857 138.47L188.966 137.942L188.074 137.112L187.479 136.433L186.885 135.301L186.513 134.32L186.365 133.415V132.132L186.662 130.623L186.885 130.019L187.851 128.51L188.371 127.906H188.52L188.668 127.604L189.932 126.322L190.526 125.567L191.344 124.586L191.938 123.756L192.607 122.851L193.276 121.87L194.168 120.436L194.762 119.455L195.208 118.625L195.877 117.342L196.992 114.701L197.66 112.89L198.181 111.306L198.849 108.589L199.295 106.476L199.667 103.534L199.816 101.496V97.1951L199.518 94.2523L199.072 91.4604L198.552 89.1966L197.883 86.782L196.843 83.9901L196.026 82.1791L195.357 80.7454L194.391 79.0099L193.202 77.048L192.31 75.7652L191.418 74.5579L190.08 72.8979L189.189 71.8415L188.371 70.936L187.628 69.8796L187.182 68.9741L186.811 67.6913L186.736 67.314V65.9558L187.108 64.673L187.702 63.4657L188.445 62.4093L188.966 61.8811L190.155 61.1265L190.972 60.7492L192.533 60.3719Z" fill="#209BFF" stroke="black" stroke-width="10" mask="url(#path-4-inside-4_34_40)"/>
<path d="M166.386 118.581L166.698 117.904L166.922 117.579H168.28V116.113L168.461 115.745L169.116 115.025L169.217 114.914L169.303 114.792L170.269 113.434L170.327 113.353L170.378 113.268L171.641 111.155L171.702 111.053L171.753 110.945L172.794 108.757L172.862 108.614L172.911 108.463L173.506 106.653L173.54 106.549L173.564 106.443L173.936 104.859L173.958 104.764L173.973 104.668L174.344 102.254L174.355 102.186L174.361 102.119L174.436 101.364L174.448 101.242V101.119V98.327V98.2L174.435 98.0736L174.212 95.8854L174.203 95.8006L174.189 95.7167L173.892 93.9812L173.866 93.8298L173.822 93.6828L173.004 90.9664L172.963 90.8291L172.906 90.6975L172.386 89.4902L172.351 89.4082L172.309 89.329L171.566 87.8953L171.547 87.8571L171.525 87.8197L170.931 86.7633L170.902 86.7118L170.871 86.6617L170.35 85.8317L170.3 85.7508L170.243 85.674L169.574 84.7685L169.541 84.723L169.505 84.6791L168.493 83.4312L167.63 82.2849L167.237 81.6373L166.923 80.735L166.793 80.1631V79.6905L166.959 79.0176L167.469 77.9294L167.917 77.3736L168.3 76.9365L168.732 76.6173L169.323 76.3172L170.013 76.1525H171.102L171.743 76.2826L172.441 76.5664L173.021 76.9284L173.697 77.5582L174.167 78.0345L174.757 78.7676L174.77 78.7836L174.783 78.7994L175.531 79.6965L176.354 80.8804L176.987 81.8086L177.826 83.1571L178.564 84.4522L179.459 86.4096L180.225 88.3174L181.062 90.8673L181.464 92.5004L181.957 95.3606L182.162 97.1687L182.23 98.612V100.592L182.094 102.867L181.46 106.513L181.055 108.298L180.371 110.381L179.814 111.795L178.975 113.783L178.437 114.807L177.67 116.222L176.793 117.593L175.81 118.947L175.097 119.888L174.572 120.555L173.739 121.471L173.717 121.495L173.695 121.52L173.284 121.998L172.814 122.415L172.807 122.422L172.799 122.428L172.316 122.864L171.815 123.161L171.223 123.393L170.639 123.52H169.541L168.927 123.386L168.336 123.172L167.907 122.881L167.343 122.308L167.037 121.865L166.384 120.599L166.234 120.144L166.199 119.785V119.485L166.386 118.581Z" fill="#209BFF" stroke="black" stroke-width="5"/>
<path d="M103.442 84.5779L103.386 84.6444L103.336 84.7147L102.518 85.8465L102.451 85.9396L102.393 86.0384L101.731 87.1583L101.144 88.1273L101.077 88.2378L101.021 88.3546L100.13 90.241L100.08 90.3468L100.04 90.4568L99.5196 91.8905L99.4784 92.004L99.4483 92.1211L99.0024 93.8566L98.9824 93.9345L98.9674 94.0135L98.5959 95.9754L98.5834 96.0413L98.5745 96.1078L98.3515 97.7679L98.3358 97.8846L98.3312 98.0022L98.2569 99.8887L98.2509 100.04L98.2633 100.192L98.412 102.003L98.4207 102.109L98.4385 102.214L98.8843 104.855L98.9048 104.976L98.9369 105.094L99.5314 107.283L99.5586 107.383L99.5939 107.48L100.114 108.914L100.153 109.022L100.202 109.126L101.02 110.862L101.073 110.975L101.137 111.082L102.178 112.817L102.225 112.896L102.277 112.97L103.02 114.027L103.067 114.094L103.118 114.157L103.787 114.987L103.824 115.033L103.863 115.077L105.127 116.503L105.662 117.227L106.12 117.983L106.391 118.58L106.504 119.112V119.848L106.32 120.643L106.038 121.311L105.587 122.022L105.096 122.577L104.887 122.789L104.14 123.191L103.635 123.362L103.146 123.444H102.09L101.4 123.28L100.702 122.925L99.9787 122.348L98.7765 121.127L98.0503 120.189L98.0437 120.18L98.0369 120.172L97.1757 119.079L96.1987 117.732L95.5201 116.699L94.6982 115.308L93.6543 113.259L92.8981 111.513L92.4249 110.209L91.7173 107.91L91.3092 106.322L90.8956 104.012L90.6925 102.087L90.6225 99.3862L90.6919 96.919L90.8928 95.1511L91.3836 92.5168L91.9332 90.2847L92.7547 87.9214L93.2955 86.6858L94.1548 84.868L95.0492 83.1216L95.7943 81.9524L96.2052 81.3265L97.1395 80.0129L97.1443 80.0062L97.6687 79.2741L98.1156 78.7555L98.1426 78.7242L98.1685 78.6921L98.7592 77.959L99.641 77.0636L100.321 76.5701L100.882 76.3074L101.323 76.1853L101.582 76.1525H102.419L103.01 76.2448L103.6 76.4291L104.226 76.747L104.861 77.2533L105.253 77.732L105.643 78.523L105.984 79.5607V80.4422L105.802 81.1802L105.474 81.9895L104.222 83.6416L103.442 84.5779Z" fill="#209BFF" stroke="black" stroke-width="5"/>
</svg>
