<svg width="273" height="381" viewBox="0 0 273 381" fill="none" xmlns="http://www.w3.org/2000/svg">
<path d="M134.625 98.5H137.188L138.688 98.6875L139.938 99L141.25 99.5L142.25 100L143.125 100.5L143.875 101L144.625 101.562L145.5 102.312L146.5 103.312L147.062 104L147.5 104.625L148.062 105.562L148.562 106.562L149.062 107.688L149.5 109L149.75 110.062L149.938 111.438V113.688L149.688 115.438L149.312 116.75L148.812 118.062L148.312 119.062L147.625 120.312L146.938 121.312L146.125 122.25L145.375 123L144.562 123.625L143.875 124.062L143.812 124.125L143.875 124.625L145.062 127.938L145.688 129.688L146.875 132.875L147.938 135.875L149.062 139L149.5 140.125L149.938 141.375L151.25 144.938L152.25 147.688L153.5 151.188L154.625 154.25L155.812 157.5L157.062 160.938L158 163.562L158.688 165.438L159.625 168L160.312 169.875L161.312 172.625L162.5 175.875L164.188 180.562L165.312 183.625L166.125 185.875L167.062 188.375L167.688 190.25L167.812 191.25L167.688 192.25L167.188 193.25L166.75 193.938L166.062 194.688L165.438 195.188L164.438 195.688L163.375 196L162.312 196.188H161.125L160.25 196L159.5 195.625L158.875 195.125L158.25 194.5L157.75 193.688L157.25 192.625L156.375 190.312L155.688 188.5L153.938 183.625L153.312 181.812L152.688 180.062L152.438 179.375L152.188 179.125H119.188L118.688 180.562L118.062 182.125L117.438 184L116.75 185.875L115.812 188.5L114.938 190.812L114.375 192.312L113.938 193.312L113.375 194.25L112.688 195L111.812 195.625L111.125 195.875L109.75 196.188H108.438L107.5 196L106.812 195.75L106 195.25L105.375 194.688L104.875 194.125L104.25 192.938L104 192.188L103.875 191.25L104 190.125L104.375 188.625L105.188 186.312L106 184.125L108.25 177.938L109.562 174.312L110.75 171.062L111.438 169.188L112.562 166.062L113.25 164.188L114.062 161.938L115.188 158.875L115.812 157.188L116.75 154.562L118.188 150.625L118.75 149.125L119.438 147.188L120.938 143.188L121.5 141.562L122.125 139.812L123.312 136.562L124.188 134.188L125.25 131.188L125.938 129.375L127.062 126.25L127.75 124.5L127.562 124.062L126.75 123.312L126.25 122.875L125.25 121.875L124.562 121L124.062 120.312L123.375 119.125L122.875 118.125L122.375 116.812L121.938 115.312L121.75 114.125L121.688 113.5V111.75L121.875 110.312L122.25 108.625L122.75 107.188L123.312 106L124.25 104.438L124.75 103.812L125.438 103L126.625 101.812L127.5 101.125L128.188 100.625L129.375 99.9375L130.375 99.4375L132.062 98.875L133.438 98.625L134.625 98.5ZM135.5 133.75L135.312 134.125L135 135.312L134.312 137.312L133.688 139.062L132.625 142L132.062 143.562L131.125 146.188L130.438 148.062L129.688 150L129.5 150.5V150.75L129.625 150.812L134.625 150.875H142L141.875 150.312L140.938 147.875L140.312 146.062L139.125 142.75L138 139.688L136.812 136.25L136.312 134.938L135.938 134.125L135.688 133.75H135.5ZM126.062 160.25L125.875 160.5L125.188 162.375L123.312 167.625L122.625 169.375V169.625L130.688 169.688H148.688L148.75 169.438L148.062 167.562L147.062 164.5L146.188 162L145.625 160.5L145.5 160.25H126.062Z" fill="#606060"/>
<path d="M87.75 79.5H88.4375L89.5625 79.6875L90.5625 80.0625L91.1875 80.4375L91.75 80.875L92.375 81.5L92.8125 82.125L93.25 83L93.5 83.875L93.625 84.875L93.5 85.8125L93.125 86.875L92.5625 87.8125L91.9375 88.5625L91.375 89.25L90.625 90.125L90.5 90.3125H90.375L90.25 90.5625L89.4375 91.5625L88.6875 92.625L87.875 93.75L87.3125 94.625L86.9375 95.3125L85.8125 97.5L84.9375 99.4375L84.25 101.312L83.75 103L83.125 105.562L82.8125 107.5L82.5625 110.25V113.5L82.8125 116.25L83.1875 118.625L83.625 120.438L84.25 122.625L84.9375 124.438L85.5 125.75L86.4375 127.688L87.25 129.125L88 130.312L88.5625 131.125L89.1875 132L89.6875 132.625L90.25 133.312L90.875 134L91.3125 134.5L91.75 134.938L92.3125 135.625L93.0625 136.625L93.625 137.625L93.875 138.25L93.9375 138.562V140.188L93.75 140.938L93.4375 141.688L92.9375 142.5L92.5 143.062L92.375 143.25H92.25L92.125 143.5L91.625 143.875L90.6875 144.312L89.6875 144.625L89 144.75H87.875L87.25 144.625L86.4375 144.312L85.5 143.688L84.625 142.938L83.375 141.688L82.8125 141L82.3125 140.438L81.1875 139.062L80.1875 137.75L79.5 136.75L78.6875 135.5L77.9375 134.25L77.0625 132.75L76 130.688L75.1875 128.812L74.5625 127.188L73.9375 125.438L73.3125 123.25L72.875 121.438L72.375 118.688L72 116.375L71.8125 114.375V109.875L72 107.562L72.375 105L72.8125 102.688L73.25 100.75L73.6875 99.1875L74.3125 97.375L75.125 95.3125L75.8125 93.6875L76.5625 92.0625L77.3125 90.6875L77.875 89.6875L78.625 88.4375L79.625 86.9375L80.1875 86.1875L80.5625 85.625L81.4375 84.4375L82.125 83.5625L82.8125 82.8125L82.875 82.6875H83L83.125 82.4375L83.5625 81.9375H83.6875L83.8125 81.6875L84.1875 81.375L84.5 81L85.25 80.4375L86.125 79.9375L87.0625 79.625L87.75 79.5Z" fill="#606060"/>
<path d="M183.125 79.5H183.938L185 79.6875L185.938 80.0625L186.75 80.5625L187.375 81.0625L188.5 82.1875L189.062 82.875L189.812 83.75L190.5 84.5625L191.125 85.375L191.875 86.4375L193.25 88.5L194 89.75L194.625 90.875L195.375 92.3125L196.25 94.125L196.938 95.8125L197.625 97.625L198.188 99.4375L198.688 101.25L199.188 103.75L199.625 106.5L199.812 108.438L199.875 109.312V114.375L199.688 117L199.375 119.062L198.75 122.312L198.25 124.25L197.688 126L197.125 127.562L196.5 129.125L195.562 131.188L194.5 133.25L193.75 134.562L192.875 135.938L192 137.25L190.688 139L189.062 141L188.375 141.75L187.938 142.25L187.125 143.062L186.625 143.5L186.062 143.875L185.188 144.312L184 144.688L182.75 144.75L181.812 144.562L180.875 144.188L180.125 143.75L179.375 143.062L178.875 142.5L178.375 141.562L178.062 140.75L177.938 140V138.938L178.188 137.688L178.375 137.188L179.188 135.938L179.625 135.438H179.75L179.875 135.188L180.938 134.125L181.438 133.5L182.125 132.688L182.625 132L183.188 131.25L183.75 130.438L184.5 129.25L185 128.438L185.375 127.75L185.938 126.688L186.875 124.5L187.438 123L187.875 121.688L188.438 119.438L188.812 117.688L189.125 115.25L189.25 113.562V110L189 107.562L188.625 105.25L188.188 103.375L187.625 101.375L186.75 99.0625L186.062 97.5625L185.5 96.375L184.688 94.9375L183.688 93.3125L182.938 92.25L182.188 91.25L181.062 89.875L180.312 89L179.625 88.25L179 87.375L178.625 86.625L178.312 85.5625L178.25 85.25V84.125L178.562 83.0625L179.062 82.0625L179.688 81.1875L180.125 80.75L181.125 80.125L181.812 79.8125L183.125 79.5Z" fill="#606060"/>
<path d="M163.938 90.5H165.312L166.25 90.6875L167.188 91.0625L168 91.5625L168.75 92.25L169.25 92.75L169.812 93.4375L170.5 94.25L171.25 95.3125L171.812 96.125L172.562 97.3125L173.25 98.5L174.062 100.25L174.75 101.938L175.5 104.188L175.875 105.688L176.312 108.188L176.5 109.812L176.562 111.125V112.875L176.438 114.938L175.875 118.125L175.5 119.75L174.875 121.625L174.375 122.875L173.625 124.625L173.125 125.562L172.438 126.812L171.625 128.062L170.75 129.25L170.125 130.062L169.625 130.688L168.875 131.5L168.438 132L167.938 132.438L167.375 132.938L166.625 133.375L165.812 133.688L164.938 133.875H163.562L162.688 133.688L161.812 133.375L161.062 132.875L160.312 132.125L159.875 131.5L159.188 130.188L158.938 129.438L158.875 128.812V128.25L159.125 127.062L159.562 126.125L160 125.5L160.5 124.812H160.625V124.688L160.875 124.438H161L161.125 124.188L161.875 123.375L162.688 122.25L163.75 120.5L164.625 118.688L165.125 117.188L165.438 115.875L165.75 113.875L165.812 113.25V110.938L165.625 109.125L165.375 107.688L164.688 105.438L164.25 104.438L163.625 103.25L163.125 102.375L162.688 101.688L162.125 100.938L161.25 99.875L160.438 98.8125L159.938 98L159.562 96.9375L159.375 96.125V95.25L159.625 94.25L160.25 92.9375L160.812 92.25L161.312 91.6875L162 91.1875L162.875 90.75L163.938 90.5Z" fill="#606060"/>
<path d="M106.5 90.5H107.5L108.312 90.625L109.125 90.875L110 91.3125L110.875 92L111.5 92.75L112 93.75L112.375 94.875L112.438 95.1875V96.375L112.188 97.375L111.75 98.4375L110.5 100.062L109.812 100.875L109.125 101.812L108.562 102.75L108.062 103.562L107.312 105.125L106.875 106.312L106.5 107.75L106.188 109.375L106 110.75L105.938 112.312L106.062 113.812L106.438 116L106.938 117.812L107.375 119L108.062 120.438L108.938 121.875L109.562 122.75L110.125 123.438L111.25 124.688L111.812 125.438L112.312 126.25L112.688 127.062L112.875 127.938V129L112.625 130.062L112.25 130.938L111.688 131.812L111.125 132.438L110.688 132.875L109.625 133.438L108.875 133.688L108.125 133.812H106.812L105.75 133.562L104.75 133.062L103.875 132.375L102.688 131.188L102 130.312L101.25 129.375L100.375 128.188L99.75 127.25L99 126L98.0625 124.188L97.375 122.625L96.9375 121.438L96.3125 119.438L95.9375 118L95.5625 115.938L95.375 114.188L95.3125 111.812L95.375 109.625L95.5625 108L96 105.688L96.5 103.688L97.25 101.562L97.75 100.438L98.5 98.875L99.3125 97.3125L100 96.25L100.375 95.6875L101.188 94.5625L101.688 93.875L102.125 93.375L102.688 92.6875L103.625 91.75L104.5 91.125L105.312 90.75L106 90.5625L106.5 90.5Z" fill="#606060"/>
<path d="M126.75 0H146.5L159.25 1.75L169 3.75L176.75 6L184.25 8.5L192.25 11.75L200.5 15.75L206.5 19.25L211.25 22.25L215.5 25.25L219.5 28.25L223 31L226.75 34.25L229.25 36.5L231 38.25L233 40L236.5 43.75L239.5 47L241.75 49.75L245 53.75L248.25 58.25L250.75 62L255 69L258.5 75.5L261.75 82.5L264.5 89.5L267.5 98.5L269.75 107.5L271.25 116L272.25 124.5L272.75 131.75V141L272 148L270.25 156.5L268 164.25L266 169.75L263.25 176.25L259.25 184.75L256.25 190.25L252.75 196.5L249.5 201.75L246.5 206.5L239.25 217.5L236.5 221.25L233 226.25L229.5 231L226.5 235.25L219 245.25L215.5 250L212.5 254L209 258.75L206.5 262L204.25 265L197.25 274.5L194.25 278.75L191 283.25L187.75 288L185.5 291L181.75 296.5L173.75 308.75L170.5 314L163.75 325.25L156.75 338.25L153.5 344.75L149.5 353.75L146 362.25L143 370.75L141 377.5L140 379.5L138 381H135L132.75 379.5L131 376L128 367.5L124.75 359.25L121.25 351.25L117.5 343.5L115.5 339.5L112.25 333.25L105.75 321.75L102.25 316L99.25 311.25L95.75 305.75L88.5 295L86.5 292L79.5 282L76.5 277.75L69.5 268.25L66.25 263.75L55.75 249.5L52.75 245.5L49.75 241.25L46.25 236.5L43 232L39.5 227L36.75 223L33.25 218L28.5 210.75L25 205.25L21.25 199L17.5 192.5L13 184L9.75 177L7 170.25L4.5 163.25L2.5 156L1 148.25L0.25 142L0 132.75L0.25 126.25L1 119.25L2.75 108.5L5 99.25L7.5 91.5L10.5 83.75L13 78L15.25 73.75L16.75 70.75L20 65.25L23 60.5L26 56.25L28.25 53.25L31.5 49.25L33.5 46.75H34L34.5 45.75L38 42L44.5 35.5L47.25 33.25L50 30.75L53.25 28.25L56.25 26L60.5 23L64.75 20.25L68.5 18L72.5 15.75L76.75 13.5L84.75 10L92.75 7L102.75 4L112.25 2L118.5 1L126.75 0ZM130 26L121.75 26.75L114.5 28L108.25 29.5L102.5 31.25L94.25 34.5L87 38L82.75 40.25L78.75 42.75L73 46.75L69.75 49.25L67 51.5L63.75 54.5L61.75 56.25L57.5 60.5L55.25 63.25L53.25 65.5L50.75 68.75L47.5 73.25L44.75 77.75L42.25 82L39 88.5L36 95.75L33.5 103.25L32 109.25L30.5 117L29.75 124L29.5 128.25V135L30 143.75L31 151L32.75 159.5L35.25 167.75L38 174.75L40.75 180.75L44.25 187.25L48.25 193.5L51.25 197.5L54 201L56.5 203.75L58.25 205.75L61.75 209.5L62.5 209.75V210.25L64.5 212L67 214.25L69.75 216.5L73.75 219.5L79.25 223.25L83 225.5L90.5 229.5L97 232.25L103 234.5L110.5 236.75L118 238.25L125.5 239.25L128.5 239.5H144.25L149.5 239L158.5 237.5L164.75 236L173.75 233L178.75 231L184.75 228.25L190.25 225.25L194.25 222.75L198.25 220L203 216.5L206.5 213.5L209.75 210.5L212.25 208.25L216.25 204L218.5 201.5L221.25 198L224 194.25L226.5 190.5L228.5 187.25L231 183L234.5 175.75L237.5 168L239.5 161.75L241 155.5L242.25 149L243 142.75L243.25 138.75V128.75L242.75 121.5L241.75 114.5L240.25 107.25L238.25 100L236 93.75L233.5 88L231.5 84L229 79.25L225.25 73.25L222.75 69.75L219.5 65.5L216.5 62L214.25 59.5L211.75 56.75L209.75 55L206.25 51.75L203.5 49.5L198.5 45.75L191.75 41.25L186.25 38.25L182 36L176.75 33.75L169.5 31L161.75 28.75L152.75 27L145.75 26.25L142.5 26H130Z" fill="#606060"/>
</svg>
